# xmcd CD database file
#
# Track frame offsets:
#	150
#	16339
#	30741
#	43341
#	55616
#	76251
#	92761
#	110201
#	126376
#	143277
#	155802
#	168572
#	183423
#	198649
#	215143
#	230789
#	247768
#	265147
#
# Disc length: 3708 seconds
#
# Revision: 0
# Processed by: cddbd v1.5.2PL0 Copyright (c) Steve Scherf et al.
# Submitted via: CDex 1.70beta2
#
DISCID=040e7a12
DTITLE=Various Artist - The Best of Country Music Channel 2007 Disc Two
DYEAR=2007
DGENRE=Country
TTITLE0=Trace Adkins - Swing
TTITLE1=SheDaisy - I'm Taking The Wheel
TTITLE2=Gretchen Wilson - California Girls
TTITLE3=Billy Currington - Why, Why, Why
TTITLE4=Sara Evans - You'll Always Be My Baby
TTITLE5=Dierks Bentley - Settle For A Slowdown
TTITLE6=Lonestar - Mountains
TTITLE7=Steve Holy - Brand New Girlfriend
TTITLE8=Miranda Lambert - New Strings
TTITLE9=Joe Nichols - Size Matters (Someday)
TTITLE10=Sugarland - Down In Mississippi (Up To No Good)
TTITLE11=Montgomery Gentry - Some People Change
TTITLE12=Julie Roberts - Men and Mascara
TTITLE13=Gary Allan - Life Ain't Always Beautiful
TTITLE14=Alan Jackson - Like Red On A Rose
TTITLE15=Josh Turner - Would You Go With Me
TTITLE16=Taylor Swift - Tim McGraw
TTITLE17=Corb Lund - Hair In My Eyes Like A Highland Steer
EXTD=YEAR: 2007
EXTT0=
EXTT1=
EXTT2=
EXTT3=
EXTT4=
EXTT5=
EXTT6=
EXTT7=
EXTT8=
EXTT9=
EXTT10=
EXTT11=
EXTT12=
EXTT13=
EXTT14=
EXTT15=
EXTT16=
EXTT17=
PLAYORDER=
